<svg xmlns="http://www.w3.org/2000/svg" version="1.1" xmlns:xlink="http://www.w3.org/1999/xlink" xmlns:svgjs="http://svgjs.dev/svgjs" width="1440" height="560" preserveAspectRatio="none" viewBox="0 0 1440 560"><g mask="url(&quot;#SvgjsMask1000&quot;)" fill="none"><rect width="1440" height="560" x="0" y="0" fill="#0e2a47"></rect><path d="M0 3.78C0.21 -0.23 3.26 0.11 7.37 0C73.26 -1.78 73.69 0 140 0C210 0 210 0 280 0C350 0 350 0 420 0C490 0 490 0 560 0C630 0 630 0 700 0C770 0 770 0 840 0C848.24 0 851.49 -6.18 856.47 0C907.91 63.82 902.39 71.9 952.84 140C964.16 155.28 965.75 154.11 980 166.76C1044.58 224.11 1045.78 222.84 1110.51 280C1115.78 284.65 1113.28 288.76 1120 290.37C1188.03 306.71 1191.48 318.95 1260 315.9C1308.15 313.76 1353.33 303.37 1353.33 280C1353.33 253.6 1300.91 254.23 1260 216.36C1225.28 184.23 1238.7 167.77 1202.07 140C1168.7 114.71 1154.73 135.17 1120 110.25C1057.16 65.17 1006.92 32.12 1006.92 0C1006.92 -23 1063.46 0 1120 0C1177.28 0 1193.24 -22.24 1234.55 0C1263.24 15.45 1230.27 57.77 1260 75.38C1312.99 106.77 1338.05 74.17 1400 98C1422.05 106.48 1411.3 121.17 1428 140C1481.3 200.1 1491.3 194.98 1540 255.86C1547.3 264.98 1540 267.93 1540 280C1540 350 1540 350 1540 420C1540 490 1575 525 1540 560C1505 595 1470 560 1400 560C1330 560 1330 560 1260 560C1190 560 1190 560 1120 560C1063.81 560 1034.46 591.14 1007.61 560C974.11 521.14 1010.94 486.45 999.31 420C997.13 407.56 989.08 402.22 980 402.22C971.96 402.22 967.27 408.84 965.07 420C951.72 487.73 984.17 520.51 948.89 560C921.63 590.51 894.44 560 840 560C775.29 560 771.54 566.97 710.57 560C701.54 558.97 704.98 544 700 544C695.25 544 699.69 559.02 691.11 560C629.69 567.02 625.56 560 560 560C490 560 490 560 420 560C350 560 350 560 280 560C230 560 223.95 573.73 180 560C153.95 551.86 157.24 516.25 140 516.25C125.58 516.25 137.55 553.48 116.67 560C67.55 575.35 27.63 590.7 0 560C-30.7 525.89 -9.09 489.47 0 430.37C1.68 419.47 21.54 426.71 21.54 420C21.54 411.87 2.08 414.22 0 400.69C-8.69 344.22 0 340.35 0 280C0 210 0 210 0 140C0 71.89 -3.47 69.77 0 3.78" stroke="rgba(51, 121, 194, 0.58)" stroke-width="2"></path><path d="M700 132.53C689.84 132.53 678.46 136.15 678.46 140C678.46 143.88 689.91 148 700 148C705.51 148 709.66 143.92 709.66 140C709.66 136.18 705.44 132.53 700 132.53" stroke="rgba(51, 121, 194, 0.58)" stroke-width="2"></path><path d="M1540 35C1523.75 35 1489.09 9.59 1489.09 0C1489.09 -7.91 1524.92 -10.37 1540 0C1550.37 7.13 1549.21 35 1540 35" stroke="rgba(51, 121, 194, 0.58)" stroke-width="2"></path><path d="M140 248.45C112.6 248.45 85.37 260.1 85.37 280C85.37 305.35 112.5 338.95 140 338.95C167.82 338.95 196 305.27 196 280C196 260.02 167.92 248.45 140 248.45" stroke="rgba(51, 121, 194, 0.58)" stroke-width="2"></path><path d="M420 261.02C401.24 261.02 401.87 269.45 385 280C331.87 313.23 329.23 310.17 280 348.57C239.49 380.17 205.53 384.47 205.53 420C205.53 455.19 236.09 485.1 280 490C343.32 497.07 351.01 469.47 420 443.95C445.61 434.47 458.14 442.64 469.19 420C498.14 360.67 515.63 330.52 500 280C491.04 251.03 458.74 261.02 420 261.02" stroke="rgba(51, 121, 194, 0.58)" stroke-width="2"></path><path d="M0 51.08C27.7 12.09 48.09 18.75 99.47 0C118.09 -6.79 119.74 0 140 0C210 0 210 0 280 0C350 0 350 0 420 0C438.66 0 445.78 -12.89 457.33 0C508.54 57.11 555.64 85.35 545.52 140C536.97 186.19 482.12 169.6 420 201.69C349.36 238.17 349.73 277.77 280 277.14C209.73 276.5 209.69 198.44 140 199.15C69.69 199.87 37.51 295.85 0 280C-32.49 266.27 0 210 0 140C0 95.54 -22.03 82.09 0 51.08" stroke="rgba(51, 121, 194, 0.58)" stroke-width="2"></path><path d="M700 85.87C651.33 44.5 605.29 24.66 605.29 0C605.29 -18.27 652.64 0 700 0C746.66 0 755.1 -16.91 793.33 0C825.1 14.05 816.42 31.15 840 61.92C870.06 101.15 867.7 103.27 900.6 140C937.7 181.43 939.2 180.31 980 218.24C1014.5 250.31 1051.19 248.44 1051.19 280C1051.19 312.66 1013.5 311.35 980 346.67C947.11 381.35 935.84 377.08 918.4 420C892.5 483.74 921.84 509.09 893.33 560C882.64 579.09 866.66 560 840 560C808.3 560 798.53 578.17 776.6 560C728.53 520.17 736.08 444 700 444C665.56 444 680.16 523.04 635.56 560C610.16 581.04 597.78 560 560 560C490 560 490 560 420 560C350 560 280 576.52 280 560C280 541.52 349.61 524.19 420 490C489.61 456.19 489.31 454.92 560 424C569.31 419.92 577.22 429.04 580 420C599.38 357.04 572.53 338.83 604.33 280C632.53 227.83 651.88 238.66 700 198C734.72 168.66 770 168.41 770 140C770 112.35 733.69 114.5 700 85.87" stroke="rgba(51, 121, 194, 0.58)" stroke-width="2"></path><path d="M1120 66.5C1085.79 66.5 1051.79 19.38 1051.79 0C1051.79 -13.87 1085.89 0 1120 0C1154.55 0 1189.09 -13.92 1189.09 0C1189.09 19.33 1154.44 66.5 1120 66.5" stroke="rgba(51, 121, 194, 0.58)" stroke-width="2"></path><path d="M1059.66 420C1071.88 380.33 1082.63 357.87 1120 355.19C1182.8 350.69 1189.12 402.52 1260 405.64C1329.12 408.68 1328.92 380.69 1400 367.5C1468.92 354.71 1492.43 335.84 1540 353.68C1562.43 362.09 1540 386.84 1540 420C1540 490 1564.71 514.71 1540 560C1526.53 584.71 1493.86 576.79 1463.64 560C1423.86 537.9 1442.51 496.83 1400 482.22C1340.69 461.83 1311.46 464.27 1260 490C1233.68 503.16 1270.03 547.2 1244.44 560C1200.03 582.2 1182.22 560 1120 560C1088.45 560 1066.27 581.74 1056.9 560C1036.1 511.74 1040.33 482.73 1059.66 420" stroke="rgba(51, 121, 194, 0.58)" stroke-width="2"></path><path d="M0 495.19C16.73 495.19 58.33 540.58 58.33 560C58.33 572.99 13.82 575.35 0 560C-15.35 542.94 -12.44 495.19 0 495.19" stroke="rgba(51, 121, 194, 0.58)" stroke-width="2"></path><path d="M0 98.38C53.97 84.18 83.27 128.71 140 103.16C192.47 79.52 170.96 34.96 218.4 0C240.96 -16.62 249.2 0 280 0C307.5 0 316.86 -17.14 335 0C386.86 48.97 377.56 66.07 420 132.22C422.47 136.07 424.83 136.8 424.83 140C424.83 141.88 422.45 141.26 420 142.37C350.03 174.11 350.67 203.82 280 205.71C210.67 207.56 210.02 149.91 140 149.86C70.02 149.82 48.78 208.97 0 205.53C-21.22 204.04 0 172.76 0 140C0 119.19 -16.03 102.6 0 98.38" stroke="rgba(51, 121, 194, 0.58)" stroke-width="2"></path><path d="M700 39.2C678.45 39.2 656.76 11.26 656.76 0C656.76 -8.34 678.38 0 700 0C721.31 0 742.61 -8.31 742.61 0C742.61 11.29 721.38 39.2 700 39.2" stroke="rgba(51, 121, 194, 0.58)" stroke-width="2"></path><path d="M830.34 140C830.34 133.44 835.36 129.23 840 129.23C844.37 129.23 848.36 133.68 848.36 140C848.36 157.73 844.49 177.33 840 177.33C835.48 177.33 830.34 157.49 830.34 140" stroke="rgba(51, 121, 194, 0.58)" stroke-width="2"></path><path d="M1120 22.75C1108.3 22.75 1096.67 6.63 1096.67 0C1096.67 -4.75 1108.34 0 1120 0C1131.82 0 1143.64 -4.76 1143.64 0C1143.64 6.61 1131.78 22.75 1120 22.75" stroke="rgba(51, 121, 194, 0.58)" stroke-width="2"></path><path d="M662.67 280C662.67 260.85 678.58 248 700 248C738.73 248 745.95 257 782.96 280C815.95 300.5 819.31 302.37 840 335C863.69 372.37 871.73 376.53 871.73 420C871.73 485.14 863.44 552.22 840 552.22C814.52 552.22 814.66 480.63 773.89 420C744.66 376.52 732.73 385.2 700 344C677.12 315.2 662.67 308.85 662.67 280" stroke="rgba(51, 121, 194, 0.58)" stroke-width="2"></path><path d="M936.25 280C936.25 274.66 959.39 269.71 980 269.71C987.2 269.71 991.86 274.74 991.86 280C991.86 285.44 987.36 291.11 980 291.11C959.56 291.11 936.25 285.36 936.25 280" stroke="rgba(51, 121, 194, 0.58)" stroke-width="2"></path><path d="M372.11 560C372.11 553.68 394.08 541.02 420 536.05C488.02 523.02 498.13 514.74 560 524C578.13 526.71 580 547.88 580 560C580 565.88 570 560 560 560C490 560 490 560 420 560C396.06 560 372.11 565.65 372.11 560" stroke="rgba(51, 121, 194, 0.58)" stroke-width="2"></path><path d="M1106.2 560C1106.2 496.25 1109.82 420 1120 420C1130.33 420 1147.22 501.22 1147.22 560C1147.22 571.22 1133.61 560 1120 560C1113.1 560 1106.2 566.25 1106.2 560" stroke="rgba(51, 121, 194, 0.58)" stroke-width="2"></path></g><defs><mask id="SvgjsMask1000"><rect width="1440" height="560" fill="#ffffff"></rect></mask></defs></svg>